PathFileType	4	(X/Y/Z)	/Users/itak/Documents/Research/Walk-IL/dataset/trc/00035_00004.trc
DataRate	CameraRate	NumFrames	NumMarkers	Units	OrigDataRate	OrigDataStartFrame	OrigNumFrames
100.000000	100.000000	4	53	mm	100.000000	621	829
Frame#	Time	RPSI			LPSI			L3			STRN			T10			C7			CLAV			RBAK			LBAK			LSHO			LUPA			LAEL			LAOL			LWTS			LWPS			LFRA			LIFD			LHPS			LHTS			RSHO			RUPA			RAEL			RAOL			RWTS			RWPS			RFRA			RIFD			RHTS			RHPS			RBHD			LFHD			RFHD			LBHD			LHIP			RHIP			RASI			LASI			LKNE			LTHI			LANK			LTIP			LTOE			LMT1			LMT5			LHEE			RKNE			RTHI			RANK			RTIP			RTOE			RMT1			RMT5			RHEE			
		X1	Y1	Z1	X2	Y2	Z2	X3	Y3	Z3	X4	Y4	Z4	X5	Y5	Z5	X6	Y6	Z6	X7	Y7	Z7	X8	Y8	Z8	X9	Y9	Z9	X10	Y10	Z10	X11	Y11	Z11	X12	Y12	Z12	X13	Y13	Z13	X14	Y14	Z14	X15	Y15	Z15	X16	Y16	Z16	X17	Y17	Z17	X18	Y18	Z18	X19	Y19	Z19	X20	Y20	Z20	X21	Y21	Z21	X22	Y22	Z22	X23	Y23	Z23	X24	Y24	Z24	X25	Y25	Z25	X26	Y26	Z26	X27	Y27	Z27	X28	Y28	Z28	X29	Y29	Z29	X30	Y30	Z30	X31	Y31	Z31	X32	Y32	Z32	X33	Y33	Z33	X34	Y34	Z34	X35	Y35	Z35	X36	Y36	Z36	X37	Y37	Z37	X38	Y38	Z38	X39	Y39	Z39	X40	Y40	Z40	X41	Y41	Z41	X42	Y42	Z42	X43	Y43	Z43	X44	Y44	Z44	X45	Y45	Z45	X46	Y46	Z46	X47	Y47	Z47	X48	Y48	Z48	X49	Y49	Z49	X50	Y50	Z50	X51	Y51	Z51	X52	Y52	Z52	X53	Y53	Z53	

622	6.21	909.1240844726562	1025.99755859375	508.4324035644531	1063.16650390625	1031.721435546875	562.3314819335938	996.7633666992188	1091.171508789062	531.1925048828125	874.8496704101562	1272.033569335938	724.8592529296875	1004.918273925781	1234.924194335938	508.4234619140625	959.9012451171875	1499.528564453125	554.9864501953125	882.63671875	1398.177490234375	685.9780883789062	939.2033081054688	1355.793334960938	469.09716796875	1057.253173828125	1474.52099609375	591.1771850585938	1061.556640625	1482.707275390625	715.5138549804688	1163.825805664062	1379.05712890625	741.1039428710938	1228.628173828125	1177.480224609375	787.6307983398438	1199.926879882812	1143.061889648438	691.3505249023438	1120.906616210938	944.2427368164062	871.7401123046875	1207.357666015625	923.5717163085938	864.1077270507812	1225.170043945312	1070.1103515625	831.0447998046875	1082.179077148438	769.5996704101562	929.9261474609375	1177.18505859375	844.8078002929688	910.8074340820312	1110.036865234375	863.0410766601562	923.2152709960938	776.5919799804688	1456.051025390625	524.8729858398438	738.2077026367188	1383.240478515625	471.2991027832031	785.6179809570312	1130.378295898438	396.8297424316406	858.93359375	1105.551635742188	461.0074462890625	764.516357421875	849.5643310546875	471.5784301757812	759.9176025390625	849.3595581054688	377.6976013183594	776.646728515625	1054.875122070312	385.7739562988281	799.07373046875	665.3330688476562	470.4346923828125	753.7239990234375	735.881591796875	470.6929626464844	751.484130859375	741.52001953125	394.3348083496094	925.545654296875	1685.844482421875	678.7576904296875	712.1474609375	1638.729370117188	662.4453735351562	760.7504272460938	1653.08056640625	747.8370971679688	851.7349243164062	1660.820190429688	557.8004760742188	1142.317504882812	934.6184692382812	682.06591796875	781.2109375	911.578369140625	591.003662109375	818.0238037109375	947.716552734375	707.1517333984375	1041.471435546875	972.6529541015625	777.6494750976562	1157.866455078125	491.3681640625	650.214599609375	1166.804809570312	636.3348999023438	656.7379150390625	1278.707153320312	107.9297103881836	320.917236328125	1239.784423828125	319.9232788085938	470.0927734375	1152.661376953125	27.82063484191895	474.8363952636719	1155.92236328125	50.25083923339844	425.2805786132812	1261.644653320312	31.14803886413574	417.9607543945312	1248.888061523438	159.1886901855469	258.0693054199219	772.1109619140625	514.1112060546875	749.4754028320312	758.4352416992188	760.1504516601562	642.98046875	865.5260009765625	32.31539154052734	808.3756713867188	783.5447998046875	385.3848266601562	767.99462890625	712.7772827148438	50.68823623657227	983.46875	780.3211669921875	51.34577941894531	968.711181640625	737.6038818359375	41.05154037475586	882.4495239257812	935.9694213867188	32.96485900878906	810.1100463867188	
623	6.22	904.9306030273438	1027.542236328125	516.2648315429688	1058.23193359375	1033.046020507812	572.47900390625	992.0270385742188	1092.299194335938	540.1734619140625	867.8177490234375	1273.437866210938	732.451904296875	999.8551635742188	1235.954345703125	517.0842895507812	953.9677124023438	1500.580200195312	562.6926879882812	875.9384765625	1399.4921875	693.3299560546875	934.0059814453125	1356.647705078125	476.9429321289062	1051.085571289062	1475.818603515625	599.462646484375	1054.608520507812	1484.19580078125	723.85400390625	1156.7900390625	1380.393432617188	749.4004516601562	1221.431884765625	1178.312255859375	794.2618408203125	1192.755859375	1145.018798828125	697.61767578125	1116.195922851562	942.6964721679688	875.0698852539062	1202.748168945312	922.918701171875	866.6043701171875	1219.06689453125	1070.211669921875	836.0550537109375	1079.505981445312	766.5150146484375	930.4464721679688	1173.650512695312	843.09326171875	912.0702514648438	1106.386352539062	860.4028930664062	925.1467895507812	770.9481201171875	1457.016479492188	531.4036865234375	732.750244140625	1383.916137695312	477.9256591796875	779.8943481445312	1130.2138671875	405.4673461914062	852.9656372070312	1105.896362304688	470.1943969726562	757.8829345703125	850.2020874023438	482.9646911621094	753.228759765625	849.2178344726562	389.0587768554688	770.757080078125	1054.662353515625	395.15771484375	792.3116455078125	665.8863525390625	483.3163146972656	746.8995971679688	736.5078735351562	482.9753112792969	744.6888427734375	741.5244750976562	406.5978393554688	918.5626831054688	1686.98779296875	685.95458984375	705.33984375	1639.547485351562	668.771728515625	753.5279541015625	1653.9853515625	754.3900756835938	845.2346801757812	1661.849609375	564.7071533203125	1135.560791015625	935.5171508789062	693.4903564453125	775.7142944335938	912.9666748046875	596.978515625	810.7879638671875	949.0776977539062	713.8056030273438	1033.368774414062	974.0767822265625	787.1821899414062	1151.42529296875	490.7050476074219	667.0380859375	1160.088134765625	636.3413696289062	671.8136596679688	1278.422485351562	116.1840667724609	328.4819641113281	1236.275268554688	323.0762329101562	483.7495422363281	1152.333862304688	27.07267951965332	476.2886047363281	1155.22265625	51.94509124755859	428.2731018066406	1261.129516601562	34.48287200927734	421.4991760253906	1248.773559570312	169.5888519287109	267.75830078125	767.8428344726562	514.3615112304688	755.2322998046875	753.111328125	760.8905639648438	648.8486938476562	865.193359375	32.75945663452148	808.8900756835938	780.1232299804688	385.49365234375	772.8782958984375	712.566650390625	47.50659942626953	985.1051635742188	780.206787109375	49.30959701538086	969.9522094726562	737.3247680664062	40.45748901367188	883.601318359375	935.6555786132812	33.45363235473633	810.4141845703125	
624	6.23	900.5729370117188	1028.96728515625	523.9524536132812	1053.143188476562	1034.328979492188	582.273193359375	987.1328735351562	1093.503051757812	548.9383544921875	860.7760620117188	1274.90380859375	739.8422241210938	994.78759765625	1237.046630859375	525.5816040039062	948.1655883789062	1501.705322265625	570.2941284179688	869.2965087890625	1400.886596679688	700.5437622070312	928.8986206054688	1357.602416992188	484.6632080078125	1045.021362304688	1477.14599609375	607.6676635742188	1047.713623046875	1485.73779296875	732.1392822265625	1149.775634765625	1381.783325195312	757.690673828125	1214.24951171875	1179.193603515625	800.8519287109375	1185.59619140625	1147.055419921875	703.8516235351562	1111.643676757812	941.1809692382812	878.2210083007812	1198.27587890625	922.3386840820312	868.8687744140625	1213.029663085938	1070.364013671875	840.9598999023438	1077.080932617188	763.3697509765625	930.5233154296875	1170.3212890625	841.40966796875	912.98046875	1102.9248046875	857.7173461914062	926.7623901367188	765.4388427734375	1458.131469726562	537.7860107421875	727.4222412109375	1384.7822265625	484.3670654296875	774.1738891601562	1130.263793945312	413.9530944824219	846.9871826171875	1106.386840820312	479.1810913085938	750.9173583984375	851.13916015625	494.4457397460938	746.273681640625	849.2525634765625	400.5456848144531	764.8458862304688	1054.630249023438	404.3261108398438	785.0021362304688	666.724609375	496.5874328613281	739.6598510742188	737.4520874023438	495.5392761230469	737.47802734375	741.7490844726562	419.1206359863281	911.6655883789062	1688.233520507812	693.0390014648438	698.6412963867188	1640.393798828125	674.9426879882812	746.3928833007812	1654.919311523438	760.8099365234375	838.8287963867188	1662.968017578125	571.4889526367188	1128.64501953125	936.4754638671875	704.6441650390625	770.2203979492188	914.1642456054688	602.8353881835938	803.5095825195312	950.416748046875	720.2516479492188	1025.190185546875	975.62060546875	796.4822998046875	1144.353393554688	489.97607421875	684.448974609375	1152.970458984375	636.3115234375	687.2698974609375	1278.010375976562	125.1347427368164	336.915771484375	1232.326904296875	326.2825927734375	498.2745361328125	1151.924438476562	26.27361488342285	478.2974853515625	1154.400634765625	54.19169235229492	431.9794006347656	1260.557983398438	38.82648468017578	425.8335876464844	1248.530639648438	180.5296020507812	278.3182067871094	763.8970947265625	514.5408325195312	760.837890625	748.0244140625	761.51806640625	654.8345947265625	864.9461669921875	33.15547561645508	809.3908081054688	777.0101318359375	385.5351867675781	777.4810180664062	712.4287719726562	44.81325531005859	986.5599365234375	780.1549682617188	47.61763763427734	971.075927734375	737.0997314453125	40.06165313720703	884.6556396484375	935.4066162109375	33.83563613891602	810.67724609375	
625	6.24	896.080810546875	1030.28564453125	531.478759765625	1047.937744140625	1035.533569335938	591.7029418945312	982.1192016601562	1094.746948242188	557.4671020507812	853.755859375	1276.375732421875	747.0182495117188	989.7154541015625	1238.178955078125	533.8941040039062	942.4979858398438	1502.87646484375	577.7900390625	862.7305908203125	1402.312255859375	707.6199340820312	923.8829956054688	1358.637817382812	492.2459106445312	1039.062377929688	1478.470336914062	615.8037109375	1040.886962890625	1487.279541015625	740.3705444335938	1142.803588867188	1383.169311523438	765.9720458984375	1207.115356445312	1180.077758789062	807.4171142578125	1178.508178710938	1149.117553710938	710.0663452148438	1107.22509765625	939.6625366210938	881.1871948242188	1193.927124023438	921.8115844726562	870.9547119140625	1207.066528320312	1070.52978515625	845.7880859375	1074.867553710938	760.1773071289062	930.1957397460938	1167.15234375	839.7540283203125	913.5916748046875	1099.608642578125	854.9957885742188	928.0789184570312	760.0594482421875	1459.357055664062	544.0293579101562	722.2258911132812	1385.80078125	490.6271362304688	768.4739990234375	1130.492431640625	422.2403564453125	841.0248413085938	1106.989868164062	487.9177551269531	743.6415405273438	852.3698120117188	505.9925842285156	739.0865478515625	849.4340209960938	412.1332092285156	758.9412841796875	1054.7548828125	413.2315063476562	777.1212158203125	667.8571166992188	510.2743835449219	731.9802856445312	738.7257690429688	508.3743896484375	729.862548828125	742.1807861328125	431.8999633789062	904.87451171875	1689.54833984375	700.018798828125	692.0706176757812	1641.26416015625	680.932373046875	739.3519897460938	1655.882080078125	767.0745239257812	832.5625610351562	1664.139282226562	578.1403198242188	1121.641967773438	937.4332275390625	715.48583984375	764.7543334960938	915.2089233398438	608.584716796875	796.2543334960938	951.7041015625	726.5093383789062	1017.004028320312	977.2021484375	805.5078735351562	1136.610717773438	489.2149047851562	702.2667236328125	1145.456298828125	636.2412109375	702.98095703125	1277.448608398438	134.6691284179688	346.243408203125	1227.923095703125	329.5357666015625	513.5521240234375	1151.489501953125	25.57375335693359	481.0277099609375	1153.5263671875	57.04038619995117	436.5432739257812	1259.951538085938	44.18672561645508	431.119873046875	1248.107299804688	191.8502044677734	289.7032775878906	760.178955078125	514.65185546875	766.244873046875	743.1516723632812	762.0770874023438	660.9075317382812	864.7683715820312	33.49808883666992	809.85595703125	774.1433715820312	385.4989624023438	781.7742919921875	712.3431396484375	42.62395095825195	987.8051147460938	780.1433715820312	46.25510406494141	972.058349609375	736.9268798828125	39.80841827392578	885.5847778320312	935.2168579101562	34.1384162902832	810.891845703125	
